{"title":"Chandrika (2015) Telugu DesiScr x264 AAC 1GB ZippyMovieZ ExCluSi","uid":12521426,"size":1091256219,"categoryP":"video","categoryS":"movies","magnet":"?xt=urn:btih:9cbcc15750b9e890273cd11eede418c06dcaf724&amp;dn=Chandrika+%282015%29+Telugu+DesiScr+x264+AAC+1GB+ZippyMovieZ+ExCluSi&amp;tr=udp%3A%2F%2Ftracker.leechers-paradise.org%3A6969&amp;tr=udp%3A%2F%2Fzer0day.ch%3A1337&amp;tr=udp%3A%2F%2Fopen.demonii.com%3A1337&amp;tr=udp%3A%2F%2Ftracker.coppersurfer.tk%3A6969&amp;tr=udp%3A%2F%2Fexodus.desync.com%3A6969","seeders":1,"leechers":0,"uploader":"desi11","files":3,"time":1443885170,"description":"Screens\r\n \nhttps://www.picbee.pw/image/Bj \nhttps://www.picbee.pw/image/Bn \nhttps://www.picbee.pw/image/B7 \nhttps://www.picbee.pw/image/Ba \nhttps://www.picbee.pw/image/Bo\r\n\r\n\r\nINFO\r\n\r\n\r\nFormat : MPEG-4\r\nFormat profile : Base Media / Version 2\r\nCodec ID : mp42\r\nFile size : 1.01 GiB\r\nDuration : 1h 47mn\r\nOverall bit rate mode : Variable\r\nOverall bit rate : 1 347 Kbps\r\nMovie name :\r\nEncoded date : UTC 2015-10-03 05:55:41\r\nTagged date : UTC 2015-10-03 05:55:41\r\nWriting application : HandBrake 0.10.2 2015061000\r\n\r\nVideo\r\nID : 1\r\nFormat : AVC\r\nFormat/Info : Advanced Video Codec\r\nFormat profile :   \r\nFormat settings, CABAC : Yes\r\nFormat settings, ReFrames : 4 frames\r\nCodec ID : avc1\r\nCodec ID/Info : Advanced Video Coding\r\nDuration : 1h 47mn\r\nBit rate : 1 169 Kbps\r\nWidth : 720 pixels\r\nHeight : 432 pixels\r\nDisplay aspect ratio : 16:9\r\nFrame rate mode : Variable\r\nFrame rate : 25.000 fps\r\nMinimum frame rate : 12.500 fps\r\nMaximum frame rate : 25.000 fps\r\nColor space : YUV\r\nChroma subsampling : 4:2:0\r\nBit depth : 8 bits\r\nScan type : Progressive\r\nBits/(Pixel*Frame) : 0.150\r\nStream size : 910 MiB (88%)\r\nWriting library : x264 core 142 r2491 24e4fed\r\nEncoding settings : cabac=1 / ref=3 / deblock=1:0:0 / analyse=0x3:0x113 / me=hex / subme=7 / psy=1 / psy_rd=1.00:0.00 / mixed_ref=1 / me_range=16 / chroma_me=1 / trellis=1 / 8x8dct=1 / cqm=0 / deadzone=21,11 / fast_pskip=1 / chroma_qp_offset=-2 / threads=12 / lookahead_threads=2 / sliced_threads=0 / nr=0 / decimate=1 / interlaced=0 / bluray_compat=0 / constrained_intra=0 / bframes=3 / b_pyramid=2 / b_adapt=1 / b_bias=0 / direct=1 / weightb=1 / open_gop=0 / weightp=2 / keyint=250 / keyint_min=25 / scenecut=40 / intra_refresh=0 / rc_lookahead=40 / rc=abr / mbtree=1 / bitrate=1169 / ratetol=1.0 / qcomp=0.60 / qpmin=0 / qpmax=69 / qpstep=4 / vbv_maxrate=17500 / vbv_bufsize=17500 / nal_hrd=none / filler=0 / ip_ratio=1.40 / aq=1:1.00\r\nEncoded date : UTC 2015-10-03 05:55:41\r\nTagged date : UTC 2015-10-03 05:55:41\r\nColor range : Limited\r\nColor primaries : BT.601 PAL\r\nTransfer characteristics : BT.709\r\nMatrix coefficients : BT.601\r\n\r\nAudio\r\nID : 2\r\nFormat : AAC\r\nFormat/Info : Advanced Audio Codec\r\nFormat profile : LC\r\nCodec ID : 40\r\nDuration : 1h 47mn\r\nBit rate mode : Variable\r\nBit rate : 160 Kbps\r\nChannel(s) : 2 channels\r\nChannel positions : Front: L R\r\nSampling rate : 48.0 KHz\r\nCompression mode : Lossy\r\nStream size : 123 MiB (12%)\r\nTitle : Stereo / Stereo","torrent":{"xt":"urn:btih:9cbcc15750b9e890273cd11eede418c06dcaf724","amp;dn":"Chandrika+%282015%29+Telugu+DesiScr+x264+AAC+1GB+ZippyMovieZ+ExCluSi","amp;tr":["udp%3A%2F%2Ftracker.leechers-paradise.org%3A6969","udp%3A%2F%2Fzer0day.ch%3A1337","udp%3A%2F%2Fopen.demonii.com%3A1337","udp%3A%2F%2Ftracker.coppersurfer.tk%3A6969","udp%3A%2F%2Fexodus.desync.com%3A6969"],"infoHash":"9cbcc15750b9e890273cd11eede418c06dcaf724","infoHashBuffer":{"type":"Buffer","data":[156,188,193,87,80,185,232,144,39,60,209,30,237,228,24,192,109,202,247,36]},"announce":[],"urlList":[]}}